<svg width="64" height="64" viewBox="0 0 64 64" fill="none" xmlns="http://www.w3.org/2000/svg" role="img" aria-label="Empower-X Marketplace icon">
  <defs>
    <linearGradient id="empowerTop" x1="8" y1="32" x2="37" y2="3" gradientUnits="userSpaceOnUse">
      <stop stop-color="#67D0F3"/>
      <stop offset="1" stop-color="#2EA6DC"/>
    </linearGradient>
    <linearGradient id="empowerBridge" x1="15" y1="36" x2="44" y2="25" gradientUnits="userSpaceOnUse">
      <stop stop-color="#36B4E7"/>
      <stop offset="1" stop-color="#0F8ECE"/>
    </linearGradient>
    <linearGradient id="empowerBottom" x1="27" y1="60" x2="57" y2="31" gradientUnits="userSpaceOnUse">
      <stop stop-color="#0A74B8"/>
      <stop offset="1" stop-color="#129DDA"/>
    </linearGradient>
  </defs>
  <path d="M36.58 4.92a6.6 6.6 0 0 1 0 9.34L18.71 32.13a6.6 6.6 0 1 1-9.34-9.34L27.24 4.92a6.6 6.6 0 0 1 9.34 0Z" fill="url(#empowerTop)"/>
  <path d="M29.52 24.74h16.94L33.55 37.66H16.61l12.91-12.92Z" fill="url(#empowerBridge)"/>
  <path d="M54.63 32.14a6.6 6.6 0 0 1 0 9.34L36.76 59.35a6.6 6.6 0 1 1-9.34-9.34l17.87-17.87a6.6 6.6 0 0 1 9.34 0Z" fill="url(#empowerBottom)"/>
</svg>
