<?xml version="1.0" encoding="UTF-8"?>
<svg id="Capa_1" xmlns="http://www.w3.org/2000/svg" version="1.1" xmlns:xlink="http://www.w3.org/1999/xlink" viewBox="0 0 710.26 152.41">
  <!-- Generator: Adobe Illustrator 30.5.1, SVG Export Plug-In . SVG Version: 2.1.4 Build 3)  -->
  <defs>
    <style>
      .st0 {
        fill: url(#Degradado_sin_nombre_37);
      }

      .st1 {
        fill: #2d8ac5;
      }

      .st2 {
        fill: url(#Degradado_sin_nombre_38);
      }
    </style>
    <linearGradient id="Degradado_sin_nombre_37" data-name="Degradado sin nombre 37" x1="43.15" y1="63.89" x2="64.93" y2="-12.64" gradientUnits="userSpaceOnUse">
      <stop offset="0" stop-color="#2d8ac5"/>
      <stop offset=".05" stop-color="#358ec6"/>
      <stop offset=".37" stop-color="#6cadcc"/>
      <stop offset=".65" stop-color="#93c3d1"/>
      <stop offset=".87" stop-color="#acd0d4"/>
      <stop offset="1" stop-color="#b5d6d6"/>
    </linearGradient>
    <linearGradient id="Degradado_sin_nombre_38" data-name="Degradado sin nombre 38" x1="-3523.92" y1="731.36" x2="-3502.14" y2="654.83" gradientTransform="translate(-3480.1404 819.8762) rotate(-180)" gradientUnits="userSpaceOnUse">
      <stop offset="0" stop-color="#2d8ac5"/>
      <stop offset=".05" stop-color="#358ec6"/>
      <stop offset=".37" stop-color="#6cadcc"/>
      <stop offset=".65" stop-color="#93c3d1"/>
      <stop offset=".87" stop-color="#acd0d4"/>
      <stop offset="1" stop-color="#b5d6d6"/>
    </linearGradient>
  </defs>
  <path class="st1" d="M154.61,92.85h-26.75c-.98,0-1.77-.79-1.77-1.77v-8.94c.19.07.4.12.61.12h23.36c.98,0,1.77-.79,1.77-1.77v-8.63c0-.98-.79-1.77-1.77-1.77h-23.36c-.22,0-.42.04-.61.12v-8.03c0-.98.79-1.77,1.77-1.77h25.68c.98,0,1.77-.79,1.77-1.77v-9.2c0-.98-.79-1.77-1.77-1.77h-41.82c-.98,0-1.77.79-1.77,1.77v54.4c0,.98.79,1.77,1.77,1.77h42.89c.98,0,1.77-.79,1.77-1.77v-9.2c0-.98-.79-1.77-1.77-1.77Z"/>
  <path class="st1" d="M232.78,49.67c0-1.11-.9-2.01-2.01-2.01h-10.34c-.71,0-1.37.37-1.73.98l-19.32,32.49-19.74-32.51c-.37-.6-1.02-.97-1.72-.97h-10.34c-1.11,0-2.01.9-2.01,2.01v53.91c0,1.11.9,2.01,2.01,2.01h11.04c1.11,0,2.01-.9,2.01-2.01v-27.87l14.23,23.21c.37.6,1.02.96,1.72.96h5.01c.71,0,1.37-.37,1.73-.98l14.33-24.05.14,28.74c0,1.11.91,2,2.01,2h11.04c1.11,0,2.02-.9,2.01-2.02l-.08-53.91Z"/>
  <path class="st1" d="M293.58,57.63c-2.07-3.23-5.04-5.7-8.9-7.41-3.86-1.71-8.44-2.57-13.74-2.57h-24.27c-1.18,0-2.13.96-2.13,2.13v53.68c0,1.18.96,2.13,2.13,2.13h12.12c1.18,0,2.13-.96,2.13-2.13v-13.01h10.02c5.3,0,9.88-.87,13.74-2.61,3.86-1.74,6.83-4.19,8.9-7.37,2.07-3.17,3.1-6.99,3.1-11.46s-1.03-8.15-3.1-11.38ZM277.64,75.26c-1.71,1.46-4.28,2.19-7.7,2.19h-9.02v-16.89h9.02c3.42,0,5.99.76,7.7,2.28,1.71,1.52,2.56,3.57,2.56,6.17s-.86,4.79-2.56,6.25Z"/>
  <path class="st1" d="M334.67,106.76c-4.58,0-8.84-.74-12.79-2.23s-7.35-3.6-10.22-6.33c-2.87-2.73-5.12-5.93-6.75-9.6-1.63-3.67-2.44-7.68-2.44-12.04s.81-8.28,2.44-11.92c1.63-3.64,3.88-6.83,6.75-9.56,2.87-2.73,6.26-4.84,10.18-6.33,3.92-1.49,8.19-2.24,12.83-2.24s8.91.75,12.83,2.24c3.92,1.49,7.31,3.59,10.18,6.29,2.87,2.7,5.12,5.88,6.75,9.52,1.63,3.64,2.44,7.64,2.44,12s-.8,8.46-2.4,12.13c-1.6,3.67-3.85,6.86-6.75,9.56s-6.31,4.8-10.22,6.29c-3.92,1.49-8.2,2.23-12.83,2.23ZM334.67,93.18c2.21,0,4.26-.38,6.17-1.16,1.9-.77,3.56-1.89,4.97-3.35,1.41-1.46,2.51-3.2,3.31-5.21.8-2.01,1.2-4.29,1.2-6.83s-.4-4.81-1.2-6.83c-.8-2.01-1.9-3.75-3.31-5.21-1.41-1.46-3.06-2.58-4.97-3.35-1.9-.77-3.96-1.16-6.17-1.16s-4.26.39-6.17,1.16c-1.9.77-3.57,1.89-5.01,3.35-1.44,1.46-2.54,3.2-3.31,5.21-.77,2.02-1.16,4.29-1.16,6.83s.38,4.82,1.16,6.83c.77,2.02,1.87,3.75,3.31,5.21,1.43,1.46,3.1,2.58,5.01,3.35,1.9.77,3.96,1.16,6.17,1.16Z"/>
  <path class="st1" d="M464.04,47.66h-12.09c-.73,0-1.38.47-1.61,1.17l-11.75,36.16-11.33-36.14c-.22-.71-.88-1.19-1.61-1.19h-12.6c-.73,0-1.38.47-1.61,1.16l-11.88,35.82-11.28-35.8c-.22-.7-.88-1.18-1.61-1.18h-13.32c-1.15,0-1.96,1.12-1.61,2.21l17.69,54.56c.23.7.88,1.17,1.61,1.17h15.17c.73,0,1.38-.47,1.61-1.17l11.09-34.2,10.75,34.19c.22.71.88,1.18,1.61,1.18h15.08c.73,0,1.38-.47,1.61-1.17l17.69-54.56c.35-1.09-.46-2.21-1.61-2.21Z"/>
  <path class="st1" d="M518.14,92.85h-26.57c-1.03,0-1.86-.83-1.86-1.86v-8.87c.22.09.45.14.7.14h23.18c1.03,0,1.86-.83,1.86-1.86v-8.45c0-1.03-.83-1.86-1.86-1.86h-23.18c-.25,0-.48.05-.7.14v-7.96c0-1.03.83-1.86,1.86-1.86h25.5c1.03,0,1.86-.83,1.86-1.86v-9.03c0-1.03-.83-1.86-1.86-1.86h-41.64c-1.03,0-1.86.83-1.86,1.86v54.22c0,1.03.83,1.86,1.86,1.86h42.71c1.03,0,1.86-.83,1.86-1.86v-9.03c0-1.03-.83-1.86-1.86-1.86Z"/>
  <path class="st1" d="M569.98,87.37c3.54-1.67,6.3-3.97,8.25-6.93,2.07-3.15,3.1-6.95,3.1-11.42s-1.03-8.15-3.1-11.38c-2.07-3.23-5.04-5.7-8.9-7.41-3.86-1.71-8.44-2.57-13.74-2.57h-24.31c-1.16,0-2.09.94-2.09,2.09v53.75c0,1.16.94,2.1,2.09,2.1h12.2c1.16,0,2.09-.94,2.09-2.1v-13.3h8.86l9.88,14.48c.39.57,1.04.91,1.73.91h12.46c1.69,0,2.68-1.89,1.73-3.28l-10.26-14.95ZM562.3,62.85c1.71,1.52,2.57,3.57,2.57,6.17s-.86,4.8-2.57,6.29c-1.71,1.49-4.28,2.23-7.7,2.23h-9.02v-16.97h9.02c3.42,0,5.99.76,7.7,2.28Z"/>
  <path class="st1" d="M691.82,77.12l18.09-26.52c.88-1.24-.01-2.95-1.52-2.95h-13.87c-.62,0-1.19.31-1.54.81l-10.58,15.33-10.58-15.33c-.35-.5-.92-.81-1.54-.81h-13.87c-1.51,0-2.4,1.71-1.52,2.95l18.09,26.52-18.09,25.52c-.88,1.24.01,2.95,1.52,2.95h13.87c.62,0,1.19-.31,1.54-.81l10.58-15.33,10.58,15.33c.35.5.92.81,1.54.81h13.87c1.51,0,2.4-1.71,1.52-2.95l-18.09-25.52Z"/>
  <rect class="st1" x="594.38" y="70.25" width="46.44" height="12.75" rx="1.77" ry="1.77"/>
  <circle class="st1" cx="43.43" cy="76.44" r="35.72"/>
  <path class="st0" d="M82.86,26.63c5.88-6.57,5.32-16.67-1.25-22.56-6.57-5.88-16.67-5.32-22.56,1.25L18.07,51.11l.06.06c-.2.21-.44.36-.64.58-5.88,6.57-5.32,16.67,1.25,22.56s16.67,5.32,22.56-1.25c.2-.22.33-.47.51-.7l.06.06,40.97-45.79Z"/>
  <path class="st2" d="M4.07,125.78c-5.88,6.57-5.32,16.67,1.25,22.56,6.57,5.88,16.67,5.32,22.56-1.25l40.97-45.79-.06-.06c.2-.21.44-.36.64-.58,5.88-6.57,5.32-16.67-1.25-22.56-6.57-5.88-16.67-5.32-22.56,1.25-.2.22-.33.47-.51.7l-.06-.06L4.07,125.78Z"/>
</svg>