<svg width="300" height="300" viewBox="0 0 300 300" fill="none" xmlns="http://www.w3.org/2000/svg">
<g clip-path="url(#clip0_yt_1)">
  <path fill-rule="evenodd" clip-rule="evenodd" d="M33.3333 300H266.667C285.076 300 300 285.076 300 266.667V33.3333C300 14.9238 285.076 0 266.667 0H33.3333C14.9238 0 0 14.9238 0 33.3333V266.667C0 285.076 14.9238 300 33.3333 300Z" fill="black"/>
  <path fill-rule="evenodd" clip-rule="evenodd" d="M246.5 104.3C243.9 94.6 236.4 87.1 226.7 84.5C208.5 79.5 150 79.5 150 79.5C150 79.5 91.5 79.5 73.3 84.5C63.6 87.1 56.1 94.6 53.5 104.3C48.5 122.5 48.5 150.5 48.5 150.5C48.5 150.5 48.5 178.5 53.5 196.7C56.1 206.4 63.6 213.9 73.3 216.5C91.5 221.5 150 221.5 150 221.5C150 221.5 208.5 221.5 226.7 216.5C236.4 213.9 243.9 206.4 246.5 196.7C251.5 178.5 251.5 150.5 251.5 150.5C251.5 150.5 251.5 122.5 246.5 104.3ZM131.5 178.5V122.5L185.5 150.5L131.5 178.5Z" fill="white"/>
</g>
<defs>
  <clipPath id="clip0_yt_1">
    <rect width="300" height="300" fill="white"/>
  </clipPath>
</defs>
</svg>
